<svg width="28" height="28" viewBox="0 0 28 28" fill="none" xmlns="http://www.w3.org/2000/svg">
<path d="M8.04694 26.1578C8.51544 26.1578 8.84394 25.9238 9.39444 25.4078L13.6364 21.5408L21.5464 21.5523C25.0389 21.5643 26.9139 19.6188 26.9139 16.1853V7.2088C26.9139 3.7753 25.0389 1.8418 21.5469 1.8418H6.45294C2.97294 1.8418 1.08594 3.7633 1.08594 7.2088V16.1853C1.08594 19.6303 2.97244 21.5523 6.45294 21.5408H7.00394V24.9508C7.00394 25.6773 7.39044 26.1578 8.04694 26.1578ZM14.0819 13.7128C13.4724 13.7128 13.1209 13.3493 13.0974 12.7283L12.9454 6.9393C12.9219 6.2943 13.4024 5.8378 14.0704 5.8378C14.7264 5.8378 15.2419 6.3063 15.2189 6.9508L15.0429 12.7283C15.0194 13.3613 14.6799 13.7128 14.0819 13.7128ZM14.0819 18.0253C13.4139 18.0253 12.7694 17.4863 12.7694 16.7593C12.7694 16.0323 13.4024 15.4943 14.0819 15.4943C14.7734 15.4943 15.3944 16.0213 15.3944 16.7593C15.3944 17.4978 14.7614 18.0253 14.0819 18.0253Z" fill="white"/>
</svg>
