<svg width="253" height="309" viewBox="0 0 253 309" fill="none" xmlns="http://www.w3.org/2000/svg">
<path d="M247.052 263.566C247.998 266.229 246.816 267.901 244.924 266.576L200.941 235.779C200.063 235.164 199.252 234.025 198.813 232.789L176.821 170.89C175.875 168.228 173.51 166.572 172.565 167.91L150.573 199.011C150.134 199.632 149.323 199.636 148.445 199.021L104.462 168.223C102.57 166.899 101.387 163.571 102.333 162.233L172.565 62.9096C173.51 61.5719 175.875 63.2277 176.821 65.89L247.052 263.566ZM172.565 158.91C173.511 161.572 175.876 163.228 176.822 161.891L187.18 147.242C188.126 145.904 186.943 142.576 185.051 141.252L164.336 126.746C162.444 125.422 161.262 127.094 162.207 129.756L172.565 158.91Z" fill="url(#paint0_linear_238_436)"/>
<path d="M203.775 275.382C203.885 278.145 202.126 279.421 200.609 277.68L165.331 237.203C164.627 236.395 164.162 235.107 164.111 233.825L161.555 169.6C161.445 166.837 159.548 164.661 158.141 165.683L125.419 189.43C124.766 189.904 123.93 189.698 123.225 188.89L87.9475 148.412C86.4301 146.671 86.2927 143.218 87.7001 142.196L192.199 66.3596C193.606 65.3382 195.503 67.5145 195.613 70.2768L203.775 275.382ZM161.06 157.17C161.17 159.932 163.067 162.108 164.474 161.087L179.886 149.902C181.294 148.881 181.156 145.428 179.639 143.687L163.023 124.622C161.506 122.881 159.747 124.158 159.857 126.92L161.06 157.17Z" fill="url(#paint1_linear_238_436)"/>
<path d="M107.566 89.9104C108.512 88.5728 110.876 90.2281 111.821 92.8903L182.053 290.567C182.999 293.229 181.816 294.901 179.925 293.577L135.941 262.779C135.063 262.164 134.252 261.025 133.813 259.789L109.694 191.9L85.574 226.012C85.135 226.632 84.3237 226.636 83.4458 226.021L39.4624 195.224C37.5708 193.899 36.3881 190.571 37.3338 189.234L107.566 89.9104ZM109.694 191.9L122.18 174.242C123.126 172.904 121.943 169.576 120.051 168.252L99.3356 153.746C97.4439 152.422 96.2615 154.094 97.2074 156.756L109.694 191.9Z" fill="url(#paint2_linear_238_436)"/>
<path d="M145.052 303.566C145.998 306.229 144.816 307.901 142.924 306.576L98.9413 275.779C98.0633 275.164 97.252 274.025 96.8131 272.789L74.821 210.89C73.8751 208.228 71.5104 206.572 70.5645 207.91L48.5732 239.011C48.1342 239.632 47.3229 239.636 46.445 239.021L2.46152 208.223C0.56977 206.899 -0.612575 203.571 0.3333 202.233L70.5645 102.91C71.5104 101.572 73.8751 103.228 74.8209 105.89L145.052 303.566ZM70.5653 198.91C71.5112 201.572 73.8759 203.228 74.8217 201.891L85.1797 187.242C86.1255 185.904 84.9432 182.576 83.0514 181.252L62.3356 166.746C60.4439 165.422 59.2615 167.094 60.2074 169.756L70.5653 198.91Z" fill="url(#paint3_linear_238_436)"/>
<defs>
<linearGradient id="paint0_linear_238_436" x1="174.693" y1="62.9002" x2="77.905" y2="201.128" gradientUnits="userSpaceOnUse">
<stop stop-color="#9F9F9F"/>
<stop offset="1" stop-color="white"/>
</linearGradient>
<linearGradient id="paint1_linear_238_436" x1="194.393" y1="66.8998" x2="59.9008" y2="184.113" gradientUnits="userSpaceOnUse">
<stop stop-color="#2196F3"/>
<stop offset="1" stop-color="white"/>
</linearGradient>
<linearGradient id="paint2_linear_238_436" x1="109.694" y1="89.9004" x2="12.9053" y2="228.128" gradientUnits="userSpaceOnUse">
<stop stop-color="#9F9F9F"/>
<stop offset="1" stop-color="white"/>
</linearGradient>
<linearGradient id="paint3_linear_238_436" x1="72.6933" y1="102.9" x2="-24.095" y2="241.128" gradientUnits="userSpaceOnUse">
<stop stop-color="#9F9F9F"/>
<stop offset="1" stop-color="white"/>
</linearGradient>
</defs>
</svg>
