<svg width="24" height="24" viewBox="0 0 24 24" fill="none" xmlns="http://www.w3.org/2000/svg">
<path d="M22.8759 5.25V11.25C22.8759 11.5484 22.7574 11.8345 22.5464 12.0455C22.3355 12.2565 22.0493 12.375 21.7509 12.375C21.4526 12.375 21.1664 12.2565 20.9554 12.0455C20.7445 11.8345 20.6259 11.5484 20.6259 11.25V7.96875L13.5469 15.0487C13.4424 15.1536 13.3182 15.2368 13.1814 15.2936C13.0447 15.3504 12.8981 15.3796 12.75 15.3796C12.6019 15.3796 12.4553 15.3504 12.3186 15.2936C12.1818 15.2368 12.0576 15.1536 11.9531 15.0487L9.00094 12.0938L3.04687 18.0459C2.83553 18.2573 2.54888 18.376 2.25 18.376C1.95111 18.376 1.66447 18.2573 1.45312 18.0459C1.24178 17.8346 1.12305 17.5479 1.12305 17.2491C1.12305 16.9502 1.24178 16.6635 1.45312 16.4522L8.20312 9.70219C8.30764 9.59731 8.43183 9.51409 8.56858 9.45731C8.70532 9.40053 8.85193 9.3713 9 9.3713C9.14806 9.3713 9.29467 9.40053 9.43142 9.45731C9.56816 9.51409 9.69236 9.59731 9.79687 9.70219L12.7509 12.6562L19.0322 6.375H15.7509C15.4526 6.375 15.1664 6.25647 14.9554 6.0455C14.7445 5.83452 14.6259 5.54837 14.6259 5.25C14.6259 4.95163 14.7445 4.66548 14.9554 4.4545C15.1664 4.24353 15.4526 4.125 15.7509 4.125H21.7509C22.0493 4.125 22.3355 4.24353 22.5464 4.4545C22.7574 4.66548 22.8759 4.95163 22.8759 5.25Z" fill="black"/>
</svg>
