<svg width="40" height="43" viewBox="0 0 40 43" fill="none" xmlns="http://www.w3.org/2000/svg">
<path fill-rule="evenodd" clip-rule="evenodd" d="M8.84478 27.389C8.9394 27.6346 9.09963 27.8445 9.30522 27.9921C9.51081 28.1398 9.75252 28.2186 9.99978 28.2185H29.9998C30.2468 28.2183 30.4883 28.1394 30.6937 27.9917C30.899 27.844 31.0591 27.6343 31.1536 27.3889C31.2481 27.1435 31.2729 26.8735 31.2247 26.613C31.1766 26.3525 31.0577 26.1131 30.8831 25.9252L20.8831 15.1752C20.6487 14.9236 20.331 14.7822 19.9998 14.7822C19.6685 14.7822 19.3508 14.9236 19.1164 15.1752L9.11645 25.9252C8.94163 26.113 8.82251 26.3523 8.77416 26.6128C8.72581 26.8734 8.75038 27.1435 8.84478 27.389Z" fill="black" fill-opacity="0.43"/>
</svg>
