<svg width="32" height="32" viewBox="0 0 32 32" fill="none" xmlns="http://www.w3.org/2000/svg">
<path d="M9.33301 24V22.6667C9.33301 20.8986 10.0354 19.2029 11.2856 17.9526C12.5359 16.7024 14.2316 16 15.9997 16M15.9997 16C17.7678 16 19.4635 16.7024 20.7137 17.9526C21.964 19.2029 22.6663 20.8986 22.6663 22.6667V24M15.9997 16C17.0605 16 18.078 15.5786 18.8281 14.8284C19.5782 14.0783 19.9997 13.0609 19.9997 12C19.9997 10.9391 19.5782 9.92172 18.8281 9.17157C18.078 8.42143 17.0605 8 15.9997 8C14.9388 8 13.9214 8.42143 13.1712 9.17157C12.4211 9.92172 11.9997 10.9391 11.9997 12C11.9997 13.0609 12.4211 14.0783 13.1712 14.8284C13.9214 15.5786 14.9388 16 15.9997 16ZM1.33301 24V22.6667C1.33301 21.6058 1.75444 20.5884 2.50458 19.8382C3.25473 19.0881 4.27214 18.6667 5.33301 18.6667M5.33301 18.6667C6.04025 18.6667 6.71853 18.3857 7.21863 17.8856C7.71872 17.3855 7.99967 16.7072 7.99967 16C7.99967 15.2928 7.71872 14.6145 7.21863 14.1144C6.71853 13.6143 6.04025 13.3333 5.33301 13.3333C4.62576 13.3333 3.94749 13.6143 3.44739 14.1144C2.94729 14.6145 2.66634 15.2928 2.66634 16C2.66634 16.7072 2.94729 17.3855 3.44739 17.8856C3.94749 18.3857 4.62576 18.6667 5.33301 18.6667ZM30.6663 24V22.6667C30.6663 21.6058 30.2449 20.5884 29.4948 19.8382C28.7446 19.0881 27.7272 18.6667 26.6663 18.6667M26.6663 18.6667C27.3736 18.6667 28.0519 18.3857 28.552 17.8856C29.0521 17.3855 29.333 16.7072 29.333 16C29.333 15.2928 29.0521 14.6145 28.552 14.1144C28.0519 13.6143 27.3736 13.3333 26.6663 13.3333C25.9591 13.3333 25.2808 13.6143 24.7807 14.1144C24.2806 14.6145 23.9997 15.2928 23.9997 16C23.9997 16.7072 24.2806 17.3855 24.7807 17.8856C25.2808 18.3857 25.9591 18.6667 26.6663 18.6667Z" stroke="currentColor" stroke-width="2" stroke-linecap="round" stroke-linejoin="round"/>
</svg>
