<svg width="26" height="26" viewBox="0 0 26 26" fill="none" xmlns="http://www.w3.org/2000/svg">
<path d="M9.07324 17.6055L14.5441 16.0346C14.9052 15.9263 15.2168 15.7411 15.479 15.4789C15.7412 15.2167 15.926 14.9054 16.0337 14.5451L17.6045 9.07422C17.6587 8.87561 17.6092 8.69939 17.4561 8.54555C17.303 8.39172 17.1267 8.34225 16.9274 8.39714L11.4566 9.96797C11.0955 10.0763 10.7842 10.2616 10.5227 10.5237C10.2613 10.7859 10.076 11.0972 9.96699 11.4576L8.39616 16.9284C8.34199 17.127 8.39183 17.3032 8.54566 17.4571C8.69949 17.6109 8.87536 17.6604 9.07324 17.6055ZM13.0003 14.6263C12.5489 14.6263 12.1654 14.4685 11.8498 14.1529C11.5342 13.8373 11.376 13.4534 11.3753 13.0013C11.3746 12.5492 11.5328 12.1657 11.8498 11.8508C12.1669 11.5359 12.5504 11.3777 13.0003 11.3763C13.4503 11.3749 13.8341 11.533 14.1519 11.8508C14.4697 12.1686 14.6275 12.5521 14.6253 13.0013C14.6232 13.4505 14.4654 13.8344 14.1519 14.1529C13.8385 14.4714 13.4546 14.6292 13.0003 14.6263ZM13.0003 23.8346C11.5017 23.8346 10.0934 23.5501 8.77533 22.981C7.45727 22.4119 6.31074 21.6402 5.33574 20.6659C4.36074 19.6916 3.58905 18.5451 3.02066 17.2263C2.45227 15.9075 2.16772 14.4992 2.16699 13.0013C2.16627 11.5034 2.45083 10.0951 3.02066 8.7763C3.59049 7.45752 4.36219 6.311 5.33574 5.33672C6.3093 4.36244 7.45583 3.59075 8.77533 3.02164C10.0948 2.45252 11.5032 2.16797 13.0003 2.16797C14.4975 2.16797 15.9058 2.45252 17.2253 3.02164C18.5448 3.59075 19.6914 4.36244 20.6649 5.33672C21.6385 6.311 22.4105 7.45752 22.9811 8.7763C23.5516 10.0951 23.8358 11.5034 23.8337 13.0013C23.8315 14.4992 23.5469 15.9075 22.98 17.2263C22.413 18.5451 21.6414 19.6916 20.6649 20.6659C19.6885 21.6402 18.5419 22.4122 17.2253 22.9821C15.9087 23.5519 14.5004 23.8361 13.0003 23.8346ZM13.0003 21.668C15.4017 21.668 17.4467 20.8241 19.1352 19.1362C20.8238 17.4484 21.6677 15.4034 21.667 13.0013C21.6663 10.5992 20.8224 8.55422 19.1352 6.86639C17.4481 5.17855 15.4032 4.33464 13.0003 4.33464C10.5975 4.33464 8.55252 5.17891 6.86541 6.86747C5.1783 8.55602 4.33438 10.6006 4.33366 13.0013C4.33294 15.402 5.17722 17.4469 6.86649 19.1362C8.55577 20.8255 10.6004 21.6694 13.0003 21.668Z" fill="black"/>
</svg>
