<svg width="26" height="26" viewBox="0 0 26 26" fill="none" xmlns="http://www.w3.org/2000/svg">
<path d="M11.2897 2.25763C11.7671 1.85176 12.3734 1.62891 13 1.62891C13.6266 1.62891 14.2329 1.85176 14.7103 2.25763L22.6322 8.99082C22.9238 9.2387 23.158 9.547 23.3186 9.89436C23.4793 10.2417 23.5625 10.6199 23.5625 11.0026V21.5326C23.5625 22.0713 23.3485 22.5879 22.9676 22.9689C22.5866 23.3498 22.07 23.5638 21.5313 23.5638H18.2813C17.7425 23.5638 17.2259 23.3498 16.8449 22.9689C16.464 22.5879 16.25 22.0713 16.25 21.5326V16.2513C16.25 15.8216 16.0798 15.4094 15.7766 15.1049C15.4735 14.8003 15.062 14.6283 14.6323 14.6263H11.3669C10.9373 14.6285 10.5261 14.8006 10.2231 15.1051C9.92008 15.4096 9.75 15.8217 9.75 16.2513V21.5326C9.75 21.7993 9.69746 22.0635 9.59538 22.3099C9.4933 22.5563 9.34368 22.7803 9.15506 22.9689C8.96644 23.1575 8.74252 23.3071 8.49608 23.4092C8.24963 23.5113 7.9855 23.5638 7.71875 23.5638H4.46875C3.93003 23.5638 3.41337 23.3498 3.03244 22.9689C2.65151 22.5879 2.4375 22.0713 2.4375 21.5326V11.0026C2.43752 10.6199 2.52073 10.2417 2.68137 9.89436C2.842 9.547 3.07623 9.2387 3.36781 8.99082L11.2897 2.25763Z" stroke="currentColor" stroke-width="2" fill="none"/>
</svg>
